/* XPM */
static char * canvas_xpm[] = {
"14 14 144 2",
"  	c #7EAADE",
". 	c #87B1E3",
"+ 	c #81AEE3",
"@ 	c #7BABE3",
"# 	c #73A8E3",
"$ 	c #6DA4E3",
"% 	c #65A0E3",
"& 	c #619FE3",
"* 	c #5F9DE3",
"= 	c #5F9EE3",
"- 	c #4498E5",
"; 	c #FFFFFF",
"> 	c #89B2E2",
", 	c #ADD4FF",
"' 	c #93C7FF",
") 	c #74B8FF",
"! 	c #51A7FF",
"~ 	c #2F95FF",
"{ 	c #0F86FF",
"] 	c #007AFF",
"^ 	c #0074FF",
"/ 	c #0075FF",
"( 	c #007DFC",
"_ 	c #183C52",
": 	c #8EB4E2",
"< 	c #CDE1F8",
"[ 	c #C2DBF8",
"} 	c #B9D7F8",
"| 	c #AFD2F8",
"1 	c #A4CDF8",
"2 	c #9AC8F8",
"3 	c #92C5F8",
"4 	c #8EC3F8",
"5 	c #8DC2F8",
"6 	c #8BC2F8",
"7 	c #8AC1F8",
"8 	c #5FB1F4",
"9 	c #163953",
"0 	c #99BBE3",
"a 	c #DEDEDE",
"b 	c #DDDDDD",
"c 	c #D7D5D4",
"d 	c #D8D5D4",
"e 	c #D8D7D7",
"f 	c #8FC9F1",
"g 	c #173852",
"h 	c #F7F7F7",
"i 	c #F5F6F6",
"j 	c #FDFFFF",
"k 	c #EDEDEF",
"l 	c #E5E2E0",
"m 	c #FBFCFC",
"n 	c #F4F4F4",
"o 	c #E8E8E8",
"p 	c #84C4F2",
"q 	c #98BBE3",
"r 	c #F3F4F4",
"s 	c #ECEEEE",
"t 	c #CECECF",
"u 	c #D0CDCC",
"v 	c #EEECEB",
"w 	c #BBBBBA",
"x 	c #EAEBE9",
"y 	c #EEEEEF",
"z 	c #83C4F2",
"A 	c #97BBE3",
"B 	c #F6F7F8",
"C 	c #E2DDDB",
"D 	c #CCC6C4",
"E 	c #D3CECD",
"F 	c #E1DCD8",
"G 	c #C7C0BF",
"H 	c #E8E3E2",
"I 	c #E8E9E7",
"J 	c #E9E9EA",
"K 	c #81C3F2",
"L 	c #97BAE3",
"M 	c #EBEDEA",
"N 	c #E8E5E3",
"O 	c #C1C0BE",
"P 	c #E1DFDE",
"Q 	c #DBD9D8",
"R 	c #D5D3D5",
"S 	c #D1CECD",
"T 	c #E3E2E0",
"U 	c #EFEFF0",
"V 	c #80C3F2",
"W 	c #96BAE3",
"X 	c #DCDBDB",
"Y 	c #E0DBD9",
"Z 	c #F3F2F4",
"` 	c #C8C4C6",
" .	c #F1EDEB",
"..	c #F1F5F4",
"+.	c #D5CECF",
"@.	c #E6EAEB",
"#.	c #E3DDDB",
"$.	c #E5E6E7",
"%.	c #E9E9E9",
"&.	c #7EC2F2",
"*.	c #95BAE3",
"=.	c #D9D7D6",
"-.	c #F0F2EF",
";.	c #F5F7F8",
">.	c #D3D2D4",
",.	c #F0EFED",
"'.	c #F5F5F7",
").	c #D4CFCD",
"!.	c #F2F5F5",
"~.	c #E9E7E8",
"{.	c #DED9D6",
"].	c #7CC2F2",
"^.	c #F4F5F6",
"/.	c #F2F3F4",
"(.	c #CAC8C6",
"_.	c #EDECEA",
":.	c #F1F1EF",
"<.	c #CECDCA",
"[.	c #F3F5F6",
"}.	c #EFF0F1",
"|.	c #E1DFDC",
"1.	c #E5E4E3",
"2.	c #7CC1F2",
"3.	c #94BAE3",
"4.	c #E6E6E6",
"5.	c #DEDCDC",
"6.	c #E8E7E7",
"7.	c #E9E8E7",
"8.	c #E4E3E2",
"9.	c #E2E2E2",
"0.	c #E5E4E4",
"a.	c #7AC0F2",
"b.	c #173952",
"c.	c #64A9E4",
"d.	c #8BC8F3",
"e.	c #87C6F2",
"f.	c #86C5F2",
"g.	c #7AC1F2",
"h.	c #54B4F6",
"i.	c #06365B",
"j.	c #193952",
"k.	c #163852",
"l.	c #07375A",
"m.	c #24313A",
"  . + @ # $ % & * = = = - ; ",
"> , ' ) ! ~ { ] ^ / / / ( _ ",
": < [ } | 1 2 3 4 5 6 7 8 9 ",
"0 a a a b c d e a a a b f g ",
"0 a h i j k l ; m n n o p g ",
"q a r s t u v w x y o o z g ",
"A a B C D E F G H I J o K g ",
"L a M N O P Q R S T U o V g ",
"W X Y Z `  ...+.@.#.$.%.&.g ",
"*.=.-.;.>.,.'.).!.~.{.o ].g ",
"*.X ^./.(._.:.<.[.}.|.1.2.g ",
"3.a o 4.5.6.7.8.9.o %.0.a.b.",
"c.d.e.f.p z K V &.2.2.g.h.i.",
"; j.k.g g g g g g g g g l.m."};
