/* XPM */
static char * default_xpm[] = {
"14 14 69 1",
" 	c None",
".	c #7EAADE",
"+	c #87B1E3",
"@	c #81AEE3",
"#	c #7BABE3",
"$	c #73A8E3",
"%	c #6DA4E3",
"&	c #65A0E3",
"*	c #619FE3",
"=	c #5F9DE3",
"-	c #5F9EE3",
";	c #4498E5",
">	c #89B2E2",
",	c #ADD4FF",
"'	c #93C7FF",
")	c #74B8FF",
"!	c #51A7FF",
"~	c #2F95FF",
"{	c #0F86FF",
"]	c #007AFF",
"^	c #0074FF",
"/	c #0075FF",
"(	c #007DFC",
"_	c #183C52",
":	c #8EB4E2",
"<	c #CDE1F8",
"[	c #C2DBF8",
"}	c #B9D7F8",
"|	c #AFD2F8",
"1	c #A4CDF8",
"2	c #9AC8F8",
"3	c #92C5F8",
"4	c #8EC3F8",
"5	c #8DC2F8",
"6	c #8BC2F8",
"7	c #8AC1F8",
"8	c #5FB1F4",
"9	c #163953",
"0	c #99BBE3",
"a	c #ECECEC",
"b	c #8FC9F1",
"c	c #173852",
"d	c #FFFFFF",
"e	c #84C4F2",
"f	c #98BBE3",
"g	c #83C4F2",
"h	c #97BBE3",
"i	c #81C3F2",
"j	c #97BAE3",
"k	c #80C3F2",
"l	c #96BAE3",
"m	c #7EC2F2",
"n	c #95BAE3",
"o	c #7CC2F2",
"p	c #7CC1F2",
"q	c #94BAE3",
"r	c #7AC0F2",
"s	c #173952",
"t	c #64A9E4",
"u	c #8BC8F3",
"v	c #87C6F2",
"w	c #86C5F2",
"x	c #7AC1F2",
"y	c #54B4F6",
"z	c #06365B",
"A	c #193952",
"B	c #163852",
"C	c #07375A",
"D	c #24313A",
".+@#$%&*=---; ",
">,')!~{]^///(_",
":<[}|123456789",
"0aaaaaaaaaaabc",
"0addddddddddec",
"faddddddddddgc",
"haddddddddddic",
"jaddddddddddkc",
"laddddddddddmc",
"naddddddddddoc",
"naddddddddddpc",
"qaddddddddddrs",
"tuvwegikmppxyz",
" ABcccccccccCD"};
