/* XPM */
static char * pretreatment_xpm[] = {
"14 14 124 2",
"  	c #7EAADE",
". 	c #87B1E3",
"+ 	c #81AEE3",
"@ 	c #7BABE3",
"# 	c #73A8E3",
"$ 	c #6DA4E3",
"% 	c #65A0E3",
"& 	c #619FE3",
"* 	c #5F9DE3",
"= 	c #5F9EE3",
"- 	c #4498E5",
"; 	c #FFFFFF",
"> 	c #89B2E2",
", 	c #ADD4FF",
"' 	c #93C7FF",
") 	c #74B8FF",
"! 	c #51A7FF",
"~ 	c #2F95FF",
"{ 	c #0F86FF",
"] 	c #007AFF",
"^ 	c #0074FF",
"/ 	c #0075FF",
"( 	c #007DFC",
"_ 	c #183C52",
": 	c #8EB4E2",
"< 	c #CDE1F8",
"[ 	c #C2DBF8",
"} 	c #B9D7F8",
"| 	c #AFD2F8",
"1 	c #A4CDF8",
"2 	c #9AC8F8",
"3 	c #92C5F8",
"4 	c #8EC3F8",
"5 	c #8DC2F8",
"6 	c #8BC2F8",
"7 	c #8AC1F8",
"8 	c #5FB1F4",
"9 	c #163953",
"0 	c #99BBE3",
"a 	c #292929",
"b 	c #443B38",
"c 	c #A89991",
"d 	c #725E56",
"e 	c #2C2A29",
"f 	c #8FC9F1",
"g 	c #173852",
"h 	c #333333",
"i 	c #433D3A",
"j 	c #AD978C",
"k 	c #62504A",
"l 	c #84C4F2",
"m 	c #98BBE3",
"n 	c #343333",
"o 	c #3B3633",
"p 	c #998881",
"q 	c #9D857A",
"r 	c #373433",
"s 	c #83C4F2",
"t 	c #97BBE3",
"u 	c #4E423D",
"v 	c #71594E",
"w 	c #907367",
"x 	c #9C7D70",
"y 	c #BEABA2",
"z 	c #534945",
"A 	c #81C3F2",
"B 	c #97BAE3",
"C 	c #6D584F",
"D 	c #B59E94",
"E 	c #795F54",
"F 	c #9E7F71",
"G 	c #8D7368",
"H 	c #B2A199",
"I 	c #80C3F2",
"J 	c #96BAE3",
"K 	c #49403D",
"L 	c #8B7266",
"M 	c #C7B4AC",
"N 	c #846C62",
"O 	c #967B70",
"P 	c #64534C",
"Q 	c #94867D",
"R 	c #605550",
"S 	c #7EC2F2",
"T 	c #95BAE3",
"U 	c #705A51",
"V 	c #8E7165",
"W 	c #CCB2A5",
"X 	c #BFACA4",
"Y 	c #3B3735",
"Z 	c #3A3736",
"` 	c #BEB3AD",
" .	c #43403F",
"..	c #7CC2F2",
"+.	c #554842",
"@.	c #564943",
"#.	c #80665C",
"$.	c #E6D4CA",
"%.	c #9C857C",
"&.	c #68625E",
"*.	c #A39990",
"=.	c #7CC1F2",
"-.	c #94BAE3",
";.	c #403C3A",
">.	c #685750",
",.	c #353332",
"'.	c #80665A",
").	c #E9D1C5",
"!.	c #D0BDB3",
"~.	c #453D39",
"{.	c #887D77",
"].	c #7AC0F2",
"^.	c #173952",
"/.	c #64A9E4",
"(.	c #8BC8F3",
"_.	c #87C6F2",
":.	c #86C5F2",
"<.	c #7AC1F2",
"[.	c #54B4F6",
"}.	c #06365B",
"|.	c #193952",
"1.	c #163852",
"2.	c #07375A",
"3.	c #24313A",
"  . + @ # $ % & * = = = - ; ",
"> , ' ) ! ~ { ] ^ / / / ( _ ",
": < [ } | 1 2 3 4 5 6 7 8 9 ",
"0 a a a a b c d e a a a f g ",
"0 a h h h i j k h h h h l g ",
"m a h h n o p q r h h h s g ",
"t a h h u v w x y z h h A g ",
"B a h n C D E F G H n h I g ",
"J a h K L M N O P Q R h S g ",
"T a n U o V W X Y Z `  ...g ",
"T a +.@.h #.$.%.h h &.*.=.g ",
"-.;.>.h ,.'.).!.~.h h {.].^.",
"/.(._.:.l s A I S =.=.<.[.}.",
"; |.1.g g g g g g g g g 2.3."};
