/* XPM */
static char *result_xpm[] = {
"14 14 142 2",
"   c #24313A",
".  c gray20",
"X  c #343333",
"o  c #363232",
"O  c #373333",
"+  c #363434",
"@  c #3A3232",
"#  c #3F3232",
"$  c #3C3635",
"%  c #06365B",
"&  c #07375A",
"*  c #163852",
"=  c #163953",
"-  c #173852",
";  c #173952",
":  c #193952",
">  c #183C52",
",  c #433D3C",
"<  c #4B3434",
"1  c #4D3333",
"2  c #4D3636",
"3  c #4E3434",
"4  c #4B3836",
"5  c #5B3737",
"6  c #5D3737",
"7  c #593838",
"8  c #683434",
"9  c #6E3333",
"0  c #44403F",
"q  c #4B413E",
"w  c #4E4A48",
"e  c #584743",
"r  c #565250",
"t  c #615551",
"y  c #7C6760",
"u  c #0074FF",
"i  c #0075FF",
"p  c #007AFF",
"a  c #007DFC",
"s  c #0F86FF",
"d  c #2F95FF",
"f  c #4498E5",
"g  c #5F9DE3",
"h  c #5F9EE3",
"j  c #51A7FF",
"k  c #54B4F6",
"l  c #5FB1F4",
"z  c #619FE3",
"x  c #7EAADE",
"c  c #65A0E3",
"v  c #64A9E4",
"b  c #6DA4E3",
"n  c #73A8E3",
"m  c #7BABE3",
"M  c #74B8FF",
"N  c #7AC0F2",
"B  c #7AC1F2",
"V  c #7CC1F2",
"C  c #7CC2F2",
"Z  c #7EC2F2",
"A  c #873838",
"S  c #B83D3D",
"D  c #BC3F3F",
"F  c #9B5551",
"G  c #817875",
"H  c #8F7E79",
"J  c #9D7673",
"K  c #B04645",
"L  c #B44B49",
"P  c #B15350",
"I  c #C44141",
"U  c #C14F4E",
"Y  c #C94343",
"T  c #CC4444",
"R  c #D04545",
"E  c #D54747",
"W  c #D14C4C",
"Q  c #D74848",
"!  c #D74A4A",
"~  c #DB4949",
"^  c #DC5B59",
"/  c #C5706B",
"(  c #DB7570",
")  c #E34C4C",
"_  c #E54D4D",
"`  c #E64D4D",
"'  c #E84D4D",
"]  c #EC4F4F",
"[  c #ED5050",
"{  c #F05050",
"}  c #F25151",
"|  c #F65353",
" . c #F75353",
".. c #F45454",
"X. c #F85454",
"o. c #FC5454",
"O. c #FC5656",
"+. c #FE5757",
"@. c #E56260",
"#. c #91807B",
"$. c #B8817B",
"%. c #B1948A",
"&. c #81AEE3",
"*. c #87B1E3",
"=. c #89B2E2",
"-. c #8EB4E2",
";. c #94BAE3",
":. c #95BAE3",
">. c #96BAE3",
",. c #97BAE3",
"<. c #97BBE3",
"1. c #98BBE3",
"2. c #99BBE3",
"3. c #80C3F2",
"4. c #81C3F2",
"5. c #83C4F2",
"6. c #84C4F2",
"7. c #86C5F2",
"8. c #87C6F2",
"9. c #8AC1F8",
"0. c #8BC2F8",
"q. c #8DC2F8",
"w. c #8EC3F8",
"e. c #8BC8F3",
"r. c #8FC9F1",
"t. c #92C5F8",
"y. c #93C7FF",
"u. c #9AC8F8",
"i. c #A4CDF8",
"p. c #AFD2F8",
"a. c #ADD4FF",
"s. c #B9D7F8",
"d. c #C7A69B",
"f. c #C6BEBA",
"g. c #DCBDB2",
"h. c #DCBFB6",
"j. c #FDBAB9",
"k. c #D3C1BB",
"l. c #CDC4C1",
"z. c #C2DBF8",
"x. c #CDE1F8",
"c. c gray100",
/* pixels */
"x *.&.m n b c z g g g g f c.",
"=.a.y.M j d s p i i i i a > ",
"-.x.z.s.p.i.u.t.w.w.9.9.l - ",
"2.. . . < e g.H + . . . r.- ",
"2.. . 1 L %.h.^ ! 7 . . 5.- ",
"2.. . 9 / d.( O...W . . 5.- ",
"<.. . K j.$.| ) T X.7 . Z - ",
"<.. , F @.P _ Y A U J . 5.- ",
"<.O y 2 T E ~ ~ 6 $ k.r Z - ",
"<.r q O I } X._ 2 O G l.V - ",
"<.#.. @ D ] O.} 3 . + f.V - ",
"<.w . # S ' X.[ 8 . . 0 V - ",
"v e.7.7.5.5.5.Z Z V V V k % ",
"c.- - - - - - - - - - - %   "
};
